<svg xmlns="http://www.w3.org/2000/svg" width="195" height="183" viewBox="0 0 195 183">
  <g fill="none" fill-rule="evenodd">
    <g transform="translate(31.5)">
      <path fill="#3116A5" d="M113.078008,108.948007 C124.026428,96.9495866 130.058609,81.4296055 130.058609,65.1546044 C130.058609,29.307602 100.893807,0.14140001 65.0454044,0.14140001 C29.198402,0.14140001 0.0279930019,29.306202 0.0279930019,65.1546044 C0.0279930019,82.8898056 7.03891348,99.4658068 19.7749873,111.819408 C19.7913953,111.835816 19.8132773,111.84129 19.8242114,111.852224 C20.0046854,112.01629 20.2015534,112.14754 20.4203034,112.23504 C20.4585794,112.251448 20.4968694,112.404566 20.5351454,112.415514 C20.7593694,112.503014 20.9945134,112.699882 21.2296714,112.699882 C21.4320135,112.699882 21.6343555,112.519408 21.8312375,112.45925 C21.8695275,112.448302 21.9023295,112.37175 21.9406195,112.355342 C22.1320275,112.28425 22.3124875,112.153 22.4820275,112.02721 C22.4929615,112.016276 22.5093695,111.999868 22.5203035,111.988934 C29.957804,106.164653 30.9639841,99.0280127 30.9639841,92.8313323 C30.9639841,92.8149243 30.9585101,92.7930423 30.9585101,92.7821083 C30.9585101,92.7000823 30.9475761,92.6235163 30.9366421,92.5469503 C30.9257081,92.4867923 30.9202341,92.4211743 30.9093001,92.3610163 C30.8928921,92.2953843 30.8710101,92.2297663 30.8491421,92.1641483 C30.8272601,92.0985303 30.8108521,92.0328983 30.7835101,91.9727403 C30.7561681,91.9125823 30.7178921,91.8524243 30.6905501,91.7977403 C30.6577341,91.7375822 30.6249181,91.6774242 30.5921021,91.6227402 C30.5538261,91.5680562 30.5046021,91.5133722 30.4553921,91.4586742 C30.4171021,91.4094502 30.3733521,91.3602402 30.3296021,91.3164902 C30.2803921,91.2672662 30.2257081,91.2289902 30.1710101,91.1852402 C30.1163261,91.1414902 30.067116,91.0977402 30.012418,91.0649242 C29.963208,91.0321222 29.90305,91.0047662 29.848352,90.9774242 C29.77726,90.9391482 29.711642,90.9008722 29.635076,90.8735162 C29.618682,90.8680562 29.607734,90.8571222 29.591326,90.8516482 C24.8717857,89.1125681 21.6999455,84.4859878 21.6999455,79.3234874 L21.6999455,48.3540853 C21.6999455,46.6204652 22.8921296,45.4993451 24.7406057,45.4993451 L25.8999738,45.4993451 L25.8999738,62.2993462 C25.8999738,63.4587143 26.8406058,64.3993464 27.9999739,64.3993464 C29.159342,64.3993464 30.0999741,63.4587143 30.0999741,62.2993462 L30.0999741,41.7529448 C30.0999741,40.0411647 31.6804342,38.5920246 33.5506943,38.5920246 C33.8077203,38.5920246 34.0866283,38.6412346 34.3655363,38.7123406 C34.3436683,38.9474987 34.2999183,39.1771827 34.2999183,39.4178147 L34.2999183,62.2994162 C34.2999183,63.4587843 35.2405504,64.3994164 36.3999185,64.3994164 C37.5592866,64.3994164 38.4999186,63.4587843 38.4999186,62.2994162 L38.4999186,39.4178147 C38.4999186,37.8100546 39.4897607,36.1803145 41.3874188,36.1803145 C42.0655509,36.1803145 42.8749189,36.3498405 43.722619,37.6076146 C43.979645,37.9904306 44.099961,38.5646406 44.099961,39.4232747 L44.099961,42.6989949 C44.099961,42.8794689 44.127303,43.0544689 44.176527,43.2239949 C43.2577769,44.476337 42.6999469,46.0458351 42.6999469,47.8176753 L42.6999469,62.2992762 C42.6999469,63.4586443 43.640579,64.3992764 44.7999471,64.3992764 C45.9593151,64.3992764 46.8999472,63.4586443 46.8999472,62.2992762 L46.8999472,47.8176753 C46.8999472,46.2099151 47.8897893,44.580175 49.7874474,44.580175 C50.4655794,44.580175 51.2749475,44.749701 52.1226476,46.0074751 C52.3796736,46.3902912 52.4999896,46.9645012 52.4999896,47.8231353 L52.4999896,57.6176759 C50.0172294,58.837202 48.2999893,61.3583362 48.2999893,64.2731364 L48.2999893,72.0988569 C48.2999893,73.258225 49.2406214,74.1988571 50.3999894,74.1988571 C51.5593575,74.1988571 52.4999896,73.258225 52.4999896,72.0988569 L52.4999896,64.2731364 C52.4999896,62.5176763 54.0422297,61.0356362 55.8632098,61.0356362 C57.6843299,61.0356362 59.22643,62.5176763 59.22643,64.2731364 L59.210022,80.9471375 C59.210022,85.1525978 56.3827218,88.204178 54.0093017,90.0198381 C53.3694596,90.5120222 52.1390416,90.7635882 50.9468015,91.0096802 L50.7827355,91.0424822 C50.6022614,91.0807722 50.4382094,91.1463902 50.2796034,91.2229562 C49.1749193,91.2940622 48.2998633,92.1963903 48.2998633,93.3174964 L48.2998633,94.6792204 C48.2998633,95.5760885 48.5514293,96.4019206 48.5459553,97.4299406 C48.4967313,105.201061 47.7748633,114.273342 40.9827348,122.629948 C40.5561688,123.154948 40.4085108,123.849474 40.5835108,124.500208 C40.7585108,125.150984 41.2342868,125.675984 41.8631949,125.916588 C49.2514154,128.738428 57.0559959,130.171328 65.0457964,130.171328 C74.5832971,130.171328 83.7763977,128.153368 92.3625983,124.172048 C92.9149403,123.915022 93.3305724,123.428298 93.5000984,122.83768 C93.6641644,122.247048 93.5711904,121.618154 93.2321244,121.10952 C87.932844,113.092274 86.8446239,104.380913 86.8446239,93.7717124 C86.8446239,92.6123443 85.8985319,91.6717122 84.7391638,91.6717122 C84.6188478,91.6717122 84.5094798,91.6881202 84.3946377,91.7045282 C84.3071377,91.6935942 84.2196377,91.6771862 84.1321377,91.6771862 C77.5039773,91.6771862 72.1118769,86.2248859 72.1118769,79.5146854 L72.1118769,74.1662651 C72.1009289,70.2998848 74.5564171,67.8990246 78.5048373,67.8990246 L95.2012385,67.8990246 C96.3606066,67.8990246 97.3012386,66.9583926 97.3012386,65.7990245 L97.3012386,48.1562233 C97.3012386,46.5976032 98.1762387,44.9187231 100.101239,44.9187231 C102.026239,44.9187231 102.901239,46.5976032 102.901239,48.1562233 L102.901239,57.9343839 C100.445779,59.230476 98.7012387,61.7296442 98.7012387,64.4641244 L98.7012387,72.0984649 C98.7012387,73.257833 99.6418708,74.1984651 100.801239,74.1984651 C101.960607,74.1984651 102.901239,73.257833 102.901239,72.0984649 L102.901239,64.4695844 C102.901239,62.7961643 104.689459,61.2102442 106.587159,61.2102442 C108.479399,61.2102442 110.26762,62.7743243 110.26762,64.4259044 L110.22933,81.0677055 C110.22933,86.8536259 105.433209,91.5567862 99.5434088,91.5567862 C93.6863684,91.5567862 88.737088,86.6458659 88.737088,80.8325055 C88.737088,79.6731374 87.79647,78.7325054 86.6370879,78.7325054 C85.4777198,78.7325054 84.5370878,79.6731374 84.5370878,80.8325055 C84.5370878,88.9207261 91.4057682,95.7565065 99.5436888,95.7565065 C101.211649,95.7565065 102.808489,95.4721245 104.306909,94.9690065 C104.350659,99.5026268 104.826435,104.391707 109.195989,108.865127 C109.305371,109.116693 109.469423,109.346377 109.682713,109.543259 C110.027239,109.865917 110.45928,110.013575 110.891306,110.057325 C110.967872,110.068259 111.02803,110.101076 111.110056,110.101076 C111.126464,110.101076 111.142872,110.095601 111.153806,110.095601 C111.181148,110.095601 111.20849,110.090141 111.235846,110.084667 C111.77178,110.051851 112.356938,109.838575 112.739726,109.422943 C112.88191,109.286219 112.985818,109.122167 113.078792,108.947167 L113.078008,108.948007 Z M72.0999909,65.6026045 L72.0999909,48.5450033 C72.0999909,46.7513232 74.052305,45.4988831 75.8023052,45.4988831 L76.2999632,45.4988831 L76.2999632,63.6988843 C76.2999632,63.7645023 76.3163712,63.8246603 76.3218312,63.8902924 C74.7249911,64.1692004 73.303151,64.7598184 72.0999909,65.6020725 L72.0999909,65.6026045 Z M80.5000055,63.6994443 L80.5000055,41.9448429 C80.5000055,40.1839227 82.0367856,38.7018826 83.8468457,38.7018826 C84.1530957,38.7018826 84.4648198,38.7511066 84.7710698,38.8276586 C84.7437278,39.0901587 84.6999778,39.3417247 84.6999778,39.6151587 L84.6999778,63.6994443 L80.5000055,63.6994443 Z M93.1000063,63.6994443 L88.9000061,63.6994443 L88.9000061,39.6152427 C88.9000061,38.0566226 89.7750061,36.3777425 91.7000062,36.3777425 C93.6250064,36.3777425 94.5000064,38.0566226 94.5000064,39.6152427 L94.5000064,43.629323 C93.6250064,44.8707311 93.1000063,46.4129432 93.1000063,48.1574833 L93.1000063,63.6994443 Z M108.500007,92.8264463 L108.500007,92.7717623 C112.092968,90.0865621 114.428168,85.8483418 114.428168,81.0740615 L114.466444,64.4322604 C114.466444,60.5713401 111.141444,57.2954799 107.100063,57.0385799 L107.100063,48.1572593 C107.100063,43.913579 104.092303,40.7197588 100.100063,40.7197588 C99.6188128,40.7197588 99.1484968,40.7689688 98.7000627,40.8619428 L98.7000627,39.6205347 C98.7000627,35.3768544 95.6923025,32.1830342 91.7000622,32.1830342 C89.4359821,32.1830342 87.516442,33.2330343 86.2477619,34.9009944 C85.4711958,34.6494284 84.6563818,34.5072444 83.8470417,34.5072444 C79.9095414,34.5072444 76.6993412,37.5095446 76.3657212,41.3158648 C76.3438392,41.3049168 76.3219712,41.2994568 76.3000892,41.2994568 L75.8024312,41.2994568 C71.5203909,41.2994568 67.9001306,44.618997 67.9001306,48.5455773 L67.9001306,79.5149794 C67.9001306,88.03524 74.3860651,95.0409805 82.6379456,95.8011805 C82.7582476,104.294141 83.7152877,113.126182 88.391106,121.318978 C80.9918255,124.408778 73.105891,125.972858 64.9789044,125.972858 C58.449164,125.972858 51.9961435,124.9502 45.8759031,122.932198 C51.9352435,114.160362 52.6954436,104.803601 52.7445836,97.4592006 C52.7500436,96.5349766 52.5586496,95.7694005 52.5148996,94.9764405 C53.8984917,94.6756644 55.3696398,94.2819144 56.5671999,93.3632204 C60.9804062,89.9780201 63.4140403,85.5702598 63.4140403,80.9600595 L63.4304343,64.2860584 C63.4304343,60.4633581 60.4827341,57.3078979 56.7038539,56.8923779 L56.6983939,47.8251373 C56.6983939,46.7368612 56.5835519,45.1180971 55.6046438,43.657897 C54.1389837,41.4813168 52.1812236,40.3821768 49.7859634,40.3821768 C49.2718974,40.3821768 48.7742393,40.4368608 48.2984633,40.5353088 L48.2984633,39.4251507 C48.2984633,38.3368746 48.1836213,36.7181105 47.2047132,35.2579104 C45.7390531,33.0813303 43.781293,31.9821902 41.3860328,31.9821902 C39.0673527,31.9821902 37.0930725,33.0595323 35.8187924,34.7658104 C35.0695684,34.5306524 34.2985323,34.3939423 33.5492523,34.3939423 C29.491492,34.3939423 26.1664918,37.4564426 25.9203718,41.3064428 C25.9148978,41.3009688 25.9094378,41.3009688 25.8984898,41.3009688 L24.7391217,41.3009688 C20.5445814,41.3009688 17.4984612,44.265049 17.4984612,48.3557093 L17.4984612,79.3251114 C17.4984612,85.7180718 21.1625414,91.5039922 26.7461618,94.1889124 C26.6039778,98.7443727 25.6305297,103.392793 21.3484615,107.434173 C10.3016207,96.0318725 4.22646589,81.1015715 4.22646589,65.1555704 C4.22646589,31.6213682 31.5096761,4.3423663 65.0438784,4.3423663 C98.5780807,4.3423663 125.857083,31.6255682 125.857083,65.1555704 C125.857083,79.7729714 120.656362,93.7463724 111.173882,104.776973 C108.352041,101.140193 108.499601,97.2465126 108.499601,92.8276923 L108.500007,92.8264463 Z"/>
      <path fill="#F3AE3B" d="M77.5530053 22.0444015L70.2303048 28.710782C69.3717127 29.492808 69.3115547 30.8217021 70.0881208 31.6748622 70.5037528 32.1287702 71.0724888 32.3584542 71.6412809 32.3584542 72.1444129 32.3584542 72.6530049 32.1779802 73.057661 31.8115862L80.3803615 25.1452057C81.2389535 24.3631797 81.2991115 23.0342856 80.5225455 22.1811255 79.7350454 21.3225335 78.4061653 21.2623754 77.5530053 22.0444015zM64.5582044 14.700001L64.5472704 14.700001C63.3933623 14.700001 62.4527303 15.7062511 62.4472703 16.8656611L62.4035203 26.8406618C62.4035203 27.9945699 63.3386783 28.700001 64.4980604 28.700001L64.5089944 28.700001C65.6629025 28.700001 66.6035345 27.9125019 66.6089945 26.7586218L66.6527683 17.0079012C66.6582185 15.8430591 65.7175865 14.700001 64.5582044 14.700001L64.5582044 14.700001zM51.5102035 21.9296015C50.6570715 21.1421014 49.3281634 21.1913254 48.5406633 22.0444435 47.7531633 22.8921016 47.8023873 24.2264837 48.6555053 25.0139837L55.9180058 31.7460242C56.3226898 32.1233662 56.8312819 32.3038402 57.3453059 32.3038402 57.9085819 32.3038402 58.471872 32.0796162 58.887546 31.6311822 59.6750461 30.7835241 59.6258221 29.449142 58.772704 28.661642L51.5102035 21.9296015z"/>
    </g>
    <path fill="#3116A5" fill-rule="nonzero" d="M18.2560012,182.140012 L18.2560012,147.98001 L28.672002,147.98001 L28.672002,141.65201 L0,141.65201 L0,147.98001 L10.4160007,147.98001 L10.4160007,182.140012 L18.2560012,182.140012 Z M36.6800025,182.644012 C38.9946693,182.644012 41.0386695,182.168012 42.8120029,181.216012 C44.5853364,180.264012 45.9760031,179.060012 46.9840032,177.604012 L46.9840032,177.604012 L46.9840032,182.140012 L54.8800037,182.140012 L54.8800037,151.11601 L46.9840032,151.11601 L46.9840032,155.540011 C45.9386698,154.121344 44.548003,152.945344 42.8120029,152.01201 C41.0760028,151.078677 39.0506693,150.61201 36.7360025,150.61201 C34.0853357,150.61201 31.6866688,151.265344 29.540002,152.57201 C27.3933352,153.878677 25.6946684,155.745344 24.4440017,158.172011 C23.1933349,160.598678 22.5680015,163.380011 22.5680015,166.516011 C22.5680015,169.689345 23.1933349,172.498678 24.4440017,174.944012 C25.6946684,177.389345 27.3933352,179.284012 29.540002,180.628012 C31.6866688,181.972012 34.066669,182.644012 36.6800025,182.644012 Z M38.7520026,175.756012 C37.3333359,175.756012 35.9986691,175.382679 34.7480024,174.636012 C33.4973356,173.889345 32.4893355,172.816012 31.7240022,171.416012 C30.9586688,170.016012 30.5760021,168.382678 30.5760021,166.516011 C30.5760021,164.649345 30.9586688,163.034678 31.7240022,161.672011 C32.4893355,160.309344 33.4880023,159.273344 34.7200024,158.564011 C35.9520024,157.854677 37.2960025,157.500011 38.7520026,157.500011 C40.2080027,157.500011 41.5706695,157.864011 42.8400029,158.592011 C44.1093363,159.320011 45.1173364,160.365344 45.8640031,161.728011 C46.6106698,163.090678 46.9840032,164.724011 46.9840032,166.628011 C46.9840032,168.532011 46.6106698,170.165345 45.8640031,171.528012 C45.1173364,172.890678 44.1093363,173.936012 42.8400029,174.664012 C41.5706695,175.392012 40.2080027,175.756012 38.7520026,175.756012 Z M71.9040049,182.644012 C74.2186717,182.644012 76.2533385,182.177346 78.0080053,181.244012 C79.7626721,180.310679 81.1253389,179.078679 82.0960056,177.548012 L82.0960056,177.548012 L82.0960056,182.140012 L90.0480061,182.140012 L90.0480061,140.70001 L82.0960056,140.70001 L82.0960056,155.428011 C81.0133389,153.97201 79.5573388,152.805344 77.7280053,151.92801 C75.8986718,151.050677 73.976005,150.61201 71.9600049,150.61201 C69.3093381,150.61201 66.9013379,151.265344 64.7360039,152.57201 C62.5706709,153.878677 60.8626708,155.745344 59.6120041,158.172011 C58.3613373,160.598678 57.7360039,163.380011 57.7360039,166.516011 C57.7360039,169.689345 58.3613373,172.498678 59.6120041,174.944012 C60.8626708,177.389345 62.5706709,179.284012 64.7360039,180.628012 C66.9013379,181.972012 69.2906714,182.644012 71.9040049,182.644012 Z M73.920005,175.756012 C72.5013383,175.756012 71.1666715,175.382679 69.9160048,174.636012 C68.665338,173.889345 67.6573379,172.816012 66.8920046,171.416012 C66.1266712,170.016012 65.7440045,168.382678 65.7440045,166.516011 C65.7440045,164.649345 66.1266712,163.034678 66.8920046,161.672011 C67.6573379,160.309344 68.6560047,159.273344 69.8880048,158.564011 C71.1200048,157.854677 72.4640049,157.500011 73.920005,157.500011 C75.3760051,157.500011 76.7386719,157.864011 78.0080053,158.592011 C79.2773387,159.320011 80.2853388,160.365344 81.0320055,161.728011 C81.7786722,163.090678 82.1520056,164.724011 82.1520056,166.628011 C82.1520056,168.532011 81.7786722,170.165345 81.0320055,171.528012 C80.2853388,172.890678 79.2773387,173.936012 78.0080053,174.664012 C76.7386719,175.392012 75.3760051,175.756012 73.920005,175.756012 Z M108.696007,182.644012 C111.720008,182.644012 114.454674,181.981346 116.900008,180.656012 C119.345341,179.330679 121.286675,177.454679 122.724008,175.028012 C124.161342,172.601345 124.880009,169.801345 124.880009,166.628011 C124.880009,163.454678 124.180008,160.654678 122.780008,158.228011 C121.380008,155.801344 119.466675,153.925344 117.040008,152.60001 C114.613341,151.274677 111.906674,150.61201 108.920007,150.61201 C105.933341,150.61201 103.226674,151.274677 100.800007,152.60001 C98.37334,153.925344 96.4600063,155.801344 95.0600065,158.228011 C93.6600064,160.654678 92.9600063,163.454678 92.9600063,166.628011 C92.9600063,169.801345 93.6413397,172.601345 95.0040065,175.028012 C96.3666732,177.454679 98.2426734,179.330679 100.632007,180.656012 C103.02134,181.981346 105.709341,182.644012 108.696007,182.644012 Z M108.696007,175.812012 C106.456007,175.812012 104.598674,175.018679 103.124007,173.432012 C101.64934,171.845345 100.912007,169.577345 100.912007,166.628011 C100.912007,163.678678 101.668007,161.410678 103.180007,159.824011 C104.692007,158.237344 106.568007,157.444011 108.808007,157.444011 C111.048008,157.444011 112.942674,158.237344 114.492008,159.824011 C116.041341,161.410678 116.816008,163.678678 116.816008,166.628011 C116.816008,168.606678 116.442675,170.286678 115.696008,171.668012 C114.949341,173.049345 113.950674,174.085345 112.700008,174.776012 C111.449341,175.466679 110.114674,175.812012 108.696007,175.812012 Z M141.40001,182.644012 C143.714676,182.644012 145.749343,182.177346 147.50401,181.244012 C149.258677,180.310679 150.621344,179.078679 151.59201,177.548012 L151.59201,177.548012 L151.59201,182.140012 L159.544011,182.140012 L159.544011,140.70001 L151.59201,140.70001 L151.59201,155.428011 C150.509344,153.97201 149.053343,152.805344 147.22401,151.92801 C145.394677,151.050677 143.47201,150.61201 141.45601,150.61201 C138.805343,150.61201 136.397343,151.265344 134.232009,152.57201 C132.066676,153.878677 130.358676,155.745344 129.108009,158.172011 C127.857342,160.598678 127.232009,163.380011 127.232009,166.516011 C127.232009,169.689345 127.857342,172.498678 129.108009,174.944012 C130.358676,177.389345 132.066676,179.284012 134.232009,180.628012 C136.397343,181.972012 138.786676,182.644012 141.40001,182.644012 Z M143.41601,175.756012 C141.997343,175.756012 140.662676,175.382679 139.412009,174.636012 C138.161343,173.889345 137.153343,172.816012 136.388009,171.416012 C135.622676,170.016012 135.240009,168.382678 135.240009,166.516011 C135.240009,164.649345 135.622676,163.034678 136.388009,161.672011 C137.153343,160.309344 138.152009,159.273344 139.384009,158.564011 C140.61601,157.854677 141.96001,157.500011 143.41601,157.500011 C144.87201,157.500011 146.234677,157.864011 147.50401,158.592011 C148.773343,159.320011 149.781344,160.365344 150.52801,161.728011 C151.274677,163.090678 151.64801,164.724011 151.64801,166.628011 C151.64801,168.532011 151.274677,170.165345 150.52801,171.528012 C149.781344,172.890678 148.773343,173.936012 147.50401,174.664012 C146.234677,175.392012 144.87201,175.756012 143.41601,175.756012 Z M178.192012,182.644012 C181.216012,182.644012 183.950679,181.981346 186.396013,180.656012 C188.841346,179.330679 190.78268,177.454679 192.220013,175.028012 C193.657347,172.601345 194.376013,169.801345 194.376013,166.628011 C194.376013,163.454678 193.676013,160.654678 192.276013,158.228011 C190.876013,155.801344 188.96268,153.925344 186.536013,152.60001 C184.109346,151.274677 181.402679,150.61201 178.416012,150.61201 C175.429345,150.61201 172.722678,151.274677 170.296012,152.60001 C167.869345,153.925344 165.956011,155.801344 164.556011,158.228011 C163.156011,160.654678 162.456011,163.454678 162.456011,166.628011 C162.456011,169.801345 163.137344,172.601345 164.500011,175.028012 C165.862678,177.454679 167.738678,179.330679 170.128012,180.656012 C172.517345,181.981346 175.205345,182.644012 178.192012,182.644012 Z M178.192012,175.812012 C175.952012,175.812012 174.094679,175.018679 172.620012,173.432012 C171.145345,171.845345 170.408012,169.577345 170.408012,166.628011 C170.408012,163.678678 171.164012,161.410678 172.676012,159.824011 C174.188012,158.237344 176.064012,157.444011 178.304012,157.444011 C180.544012,157.444011 182.438679,158.237344 183.988013,159.824011 C185.537346,161.410678 186.312013,163.678678 186.312013,166.628011 C186.312013,168.606678 185.938679,170.286678 185.192013,171.668012 C184.445346,173.049345 183.446679,174.085345 182.196012,174.776012 C180.945346,175.466679 179.610679,175.812012 178.192012,175.812012 Z"/>
  </g>
</svg>
